<svg xmlns="http://www.w3.org/2000/svg" xmlns:xlink="http://www.w3.org/1999/xlink" viewBox="0 0 95.9 95.9"><defs><style>.cls-1{fill:#b4b4b5;}.cls-2{fill:#2b2c2c;}.cls-3{fill:#4f4e4f;fill-rule:evenodd;}.cls-4{fill:#e62f2b;}.cls-5{fill:#f3c34a;}.cls-6{fill:#7fbf53;}.cls-7{opacity:0.42;fill:url(#名称未設定グラデーション_2);}</style><linearGradient id="名称未設定グラデーション_2" x1="48.75" y1="26.14" x2="49.6" y2="68.09" gradientTransform="matrix(1, 0, 0, -1, 0, 96.35)" gradientUnits="userSpaceOnUse"><stop offset="0" stop-color="#9d9d9e"/><stop offset="1" stop-color="#eeedee"/></linearGradient></defs><g id="レイヤー_2" data-name="レイヤー 2"><g id="レイヤー_1-2" data-name="レイヤー 1"><rect class="cls-1" width="95.9" height="95.9" rx="18.81"/><path class="cls-2" d="M9,19.73H87a1.11,1.11,0,0,1,1,1.19V75a1.11,1.11,0,0,1-1,1.19H9A1.11,1.11,0,0,1,8,75V20.92A1.11,1.11,0,0,1,9,19.73Z"/><path class="cls-3" d="M9,19.73c-.55,0-1,.6-1,1.35V29.9H88V21.08c0-.75-.45-1.35-1-1.35Z"/><circle class="cls-4" cx="13.24" cy="25.52" r="3.32"/><circle class="cls-5" cx="21.22" cy="25.52" r="3.32"/><circle class="cls-6" cx="29.2" cy="25.52" r="3.32"/><path class="cls-7" d="M59.25,33.73H39L28.92,51.9,39,70.07H59.25L69.32,51.9ZM44.2,70,31.52,56.54,36.45,38.4l17.6-4.64,12.67,13.5L61.79,65.4Zm9.61-35.41L37.07,39.05,32.38,56.32,44.44,69.17l16.74-4.42,4.68-17.27ZM55.5,63.37H42.74L36.37,51.9l6.37-11.47H55.5L61.88,51.9Z"/></g></g></svg>