<svg xmlns="http://www.w3.org/2000/svg" viewBox="0 0 95.9 95.9"><defs><style>.cls-1{fill:#b5b5b6;}.cls-2{fill:#3e3a39;}.cls-18,.cls-3,.cls-4{fill:#595757;}.cls-18,.cls-3{fill-rule:evenodd;}.cls-5{fill:#504f4f;}.cls-6{fill:#de5655;}.cls-7{fill:#f2f2f2;}.cls-8{fill:#5ac2e4;}.cls-9{fill:#30a55e;}.cls-10{fill:#e9954b;}.cls-11{fill:#7854a0;}.cls-12{fill:#279051;}.cls-13{fill:#3492cb;}.cls-14{fill:#70c191;}.cls-15{fill:#3876bc;}.cls-16{fill:#9f6cab;}.cls-17{fill:#efeeee;}.cls-18{opacity:0.56;}.cls-19{fill:#e7302c;}.cls-20{fill:#f4c54b;}.cls-21{fill:#80c153;}.cls-22{fill:#c9caca;}</style></defs><g id="レイヤー_2" data-name="レイヤー 2"><g id="レイヤー_1-2" data-name="レイヤー 1"><rect class="cls-1" width="95.9" height="95.9" rx="18.81"/><path class="cls-2" d="M26.47,15.51A7.23,7.23,0,0,1,33.7,8.29H64.42a7.23,7.23,0,0,1,7.23,7.22V82.38a7.23,7.23,0,0,1-7.23,7.23H33.7a7.23,7.23,0,0,1-7.23-7.23Z"/><path class="cls-3" d="M35.45,11.52a6.8,6.8,0,0,0-6.8,6.81V79.57a6.8,6.8,0,0,0,6.8,6.81H62.67a6.8,6.8,0,0,0,6.8-6.81V18.33a6.8,6.8,0,0,0-6.8-6.81h-.85v5.11a.85.85,0,0,1-.85.85H37.15a.85.85,0,0,1-.85-.85V11.52Z"/><path class="cls-4" d="M42.73,11.9a.9.9,0,0,1,.91-.9H54.48a.9.9,0,1,1,0,1.8H43.64A.9.9,0,0,1,42.73,11.9Z"/><rect class="cls-5" x="31.89" y="67.93" width="7.23" height="7.23" rx="2.71"/><rect class="cls-6" x="31.89" y="49.85" width="7.23" height="7.23" rx="2.71"/><rect class="cls-7" x="31.89" y="40.82" width="7.23" height="7.23" rx="2.71"/><rect class="cls-8" x="31.89" y="31.78" width="7.23" height="7.23" rx="2.71"/><rect class="cls-9" x="31.89" y="22.74" width="7.23" height="7.23" rx="2.71"/><rect class="cls-10" x="40.93" y="67.93" width="7.23" height="7.23" rx="2.71"/><rect class="cls-11" x="40.93" y="58.89" width="7.23" height="7.23" rx="2.71"/><rect class="cls-12" x="40.93" y="49.85" width="7.23" height="7.23" rx="2.71"/><rect class="cls-9" x="40.93" y="40.82" width="7.23" height="7.23" rx="2.71"/><rect class="cls-5" x="40.93" y="31.78" width="7.23" height="7.23" rx="2.71"/><rect class="cls-11" x="40.93" y="22.74" width="7.23" height="7.23" rx="2.71"/><rect class="cls-9" x="49.96" y="58.89" width="7.23" height="7.23" rx="2.71"/><rect class="cls-13" x="49.96" y="49.85" width="7.23" height="7.23" rx="2.71"/><rect class="cls-10" x="49.96" y="40.82" width="7.23" height="7.23" rx="2.71"/><rect class="cls-10" x="49.96" y="22.74" width="7.23" height="7.23" rx="2.71"/><rect class="cls-14" x="59" y="67.93" width="7.23" height="7.23" rx="2.71"/><rect class="cls-5" x="59" y="58.89" width="7.23" height="7.23" rx="2.71"/><rect class="cls-15" x="59" y="49.85" width="7.23" height="7.23" rx="2.71"/><rect class="cls-16" x="59" y="40.82" width="7.23" height="7.23" rx="2.71"/><rect class="cls-9" x="59" y="31.78" width="7.23" height="7.23" rx="2.71"/><rect class="cls-17" x="59" y="22.74" width="7.23" height="7.23" rx="2.71"/><path class="cls-18" d="M35.45,11.52a6.8,6.8,0,0,0-6.8,6.81V79.57a6.8,6.8,0,0,0,6.8,6.81H62.67a6.8,6.8,0,0,0,6.8-6.81V18.33a6.8,6.8,0,0,0-6.8-6.81h-.85v5.11a.85.85,0,0,1-.85.85H37.15a.85.85,0,0,1-.85-.85V11.52Z"/><rect class="cls-19" x="49.96" y="31.78" width="7.23" height="7.23" rx="2.71"/><rect class="cls-20" x="31.89" y="58.89" width="7.23" height="7.23" rx="2.71"/><rect class="cls-21" x="49.96" y="67.93" width="7.23" height="7.23" rx="2.71"/><path class="cls-22" d="M28.75,76.79H69.37a0,0,0,0,1,0,0v2.89a7.61,7.61,0,0,1-7.61,7.61H36.36a7.61,7.61,0,0,1-7.61-7.61V76.79A0,0,0,0,1,28.75,76.79Z"/></g></g></svg>