<svg xmlns="http://www.w3.org/2000/svg" xmlns:xlink="http://www.w3.org/1999/xlink" viewBox="0 0 95.9 95.9"><defs><style>.cls-1,.cls-5{fill:none;}.cls-2{fill:#b5b5b6;}.cls-3{clip-path:url(#clip-path);}.cls-4{fill:#fff;}.cls-5{stroke:#040000;stroke-width:0.2px;}.cls-6{fill:#595757;stroke:#504f4f;stroke-width:0.5px;}.cls-7{fill:#e7302c;}.cls-8{fill:#f4c54b;}.cls-9{fill:#80c153;}.cls-10{fill:#040000;}.cls-11,.cls-12{fill:#3e3a39;}.cls-11{fill-rule:evenodd;}.cls-13{fill:#231815;opacity:0.09;}</style><clipPath id="clip-path"><path class="cls-1" d="M15.68,15.34H80.22a2.09,2.09,0,0,1,2.09,2.08V81.69a2.09,2.09,0,0,1-2.09,2.08H15.68a2.09,2.09,0,0,1-2.09-2.08V17.42A2.09,2.09,0,0,1,15.68,15.34Z"/></clipPath></defs><g id="レイヤー_2" data-name="レイヤー 2"><g id="レイヤー_1-2" data-name="レイヤー 1"><rect class="cls-2" width="95.9" height="95.9" rx="18.81"/><g class="cls-3"><rect class="cls-4" x="13.59" y="15.34" width="68.71" height="68.42"/><line class="cls-5" x1="27.54" y1="76.92" x2="27.54" y2="25.61"/><line class="cls-5" x1="34.41" y1="76.92" x2="34.41" y2="25.61"/><line class="cls-5" x1="41.29" y1="76.92" x2="41.29" y2="25.61"/><line class="cls-5" x1="48.16" y1="76.92" x2="48.16" y2="25.61"/><line class="cls-5" x1="55.03" y1="76.92" x2="55.03" y2="25.61"/><line class="cls-5" x1="61.9" y1="76.92" x2="61.9" y2="25.61"/><line class="cls-5" x1="68.77" y1="76.92" x2="68.77" y2="25.61"/><line class="cls-5" x1="20.74" y1="70.01" x2="72.28" y2="70.01"/><line class="cls-5" x1="20.74" y1="63.17" x2="72.28" y2="63.17"/><line class="cls-5" x1="20.74" y1="56.33" x2="72.28" y2="56.33"/><line class="cls-5" x1="20.74" y1="49.49" x2="72.28" y2="49.49"/><line class="cls-5" x1="20.74" y1="42.64" x2="72.28" y2="42.64"/><line class="cls-5" x1="20.74" y1="35.8" x2="72.28" y2="35.8"/><line class="cls-5" x1="20.74" y1="28.96" x2="72.28" y2="28.96"/><rect class="cls-6" x="24.18" y="57.08" width="6.87" height="19.84"/><rect class="cls-7" x="31.05" y="65.98" width="6.87" height="10.95"/><rect class="cls-6" x="37.92" y="59.82" width="6.87" height="17.11"/><rect class="cls-8" x="44.79" y="44.08" width="6.87" height="32.84"/><rect class="cls-6" x="51.66" y="35.87" width="6.87" height="41.05"/><rect class="cls-9" x="58.53" y="31.08" width="6.87" height="45.84"/><path class="cls-10" d="M20.74,76.92H20.4v.35h.34Zm.24-55a.34.34,0,0,0-.48,0l-2.19,2.18a.34.34,0,0,0,0,.48.34.34,0,0,0,.49,0l1.94-1.93,1.94,1.93a.34.34,0,0,0,.49,0,.34.34,0,0,0,0-.48ZM76,77.17a.34.34,0,0,0,0-.49l-2.18-2.17a.34.34,0,0,0-.49,0,.34.34,0,0,0,0,.48l2,1.93-2,1.94a.34.34,0,0,0,0,.48.34.34,0,0,0,.49,0Zm-54.87-.25V22.19H20.4V76.92Zm-.34.35h55v-.69h-55Z"/><path class="cls-11" d="M31.25,55.18A11.11,11.11,0,1,0,30,39.53,11.15,11.15,0,0,0,31.25,55.18Zm2-2.37a8,8,0,1,0-.92-11.26A8,8,0,0,0,33.27,52.81Z"/><path class="cls-12" d="M30.13,53.06l3.39,2.88L21.7,69.8l-3.39-2.87Z"/></g><rect class="cls-13" x="13.59" y="15.34" width="69.9" height="69.9" rx="2.36"/></g></g></svg>