<svg xmlns="http://www.w3.org/2000/svg" viewBox="0 0 95.9 95.9"><defs><style>.cls-1{fill:#b5b5b6;}.cls-2{fill:#2c2c2c;}.cls-3{fill:#504f4f;fill-rule:evenodd;}.cls-4{fill:#e7302c;}.cls-5{fill:#f4c54b;}.cls-6{fill:#80c153;}.cls-7{fill:#f7f8f8;opacity:0.65;}.cls-8{opacity:0.84;font-size:15px;fill:#fff;font-family:YuGothic-Regular, Yu Gothic;}</style></defs><g id="レイヤー_2" data-name="レイヤー 2"><g id="レイヤー_1-2" data-name="レイヤー 1"><rect class="cls-1" width="95.9" height="95.9" rx="18.81"/><path class="cls-2" d="M10.87,19.73h74a1.09,1.09,0,0,1,.94,1.19V75a1.09,1.09,0,0,1-.94,1.19h-74A1.09,1.09,0,0,1,9.92,75V20.92A1.09,1.09,0,0,1,10.87,19.73Z"/><path class="cls-3" d="M10.87,19.73c-.53,0-.95.6-.95,1.35V29.9H85.85V21.08c0-.75-.42-1.35-.94-1.35Z"/><circle class="cls-4" cx="16.24" cy="25.52" r="3.32"/><circle class="cls-5" cx="24.22" cy="25.52" r="3.32"/><circle class="cls-6" cx="32.2" cy="25.52" r="3.32"/><path class="cls-7" d="M33.65,46.05H26.76l-3.45,6.19,3.45,6.2h6.89l3.43-6.2ZM28.52,58.43l-4.32-4.6,1.68-6.19,6-1.58,4.32,4.6-1.68,6.18ZM31.8,46.36l-5.71,1.5-1.6,5.89,4.11,4.38,5.71-1.51,1.6-5.88Zm.57,9.79H28l-2.17-3.91L28,48.33h4.35l2.18,3.91Z"/><text class="cls-8" transform="translate(40.4 57.53)">web</text></g></g></svg>