<svg xmlns="http://www.w3.org/2000/svg" xmlns:xlink="http://www.w3.org/1999/xlink" viewBox="0 0 452.86 101.46"><defs><style>.cls-1{fill:url(#名称未設定グラデーション_6);}.cls-2{fill:url(#名称未設定グラデーション_7);}</style><linearGradient id="名称未設定グラデーション_6" x1="43.87" y1="78.15" x2="45.61" y2="-11.1" gradientUnits="userSpaceOnUse"><stop offset="0" stop-color="#9e9e9f"/><stop offset="1" stop-color="#eeeeef"/></linearGradient><linearGradient id="名称未設定グラデーション_7" x1="278.95" y1="207.99" x2="281.11" y2="-141.39" gradientUnits="userSpaceOnUse"><stop offset="0.27" stop-color="#9e9e9f"/><stop offset="0.62" stop-color="#eeeeef"/></linearGradient></defs><g id="レイヤー_2" data-name="レイヤー 2"><g id="レイヤー_1-2" data-name="レイヤー 1"><path class="cls-1" d="M67,.55H22.32L0,39.2,22.32,77.86H67L89.26,39.2ZM33.75,77.8l-28-28.72,10.88-38.6L55.51.61l28,28.72L72.62,67.92ZM55,2.47l-37,9.4L7.64,48.6,34.28,75.94l37-9.4L81.62,29.81Zm3.73,61.14H30.54L16.45,39.2,30.54,14.8H58.72L72.81,39.2Z"/><path class="cls-2" d="M284,31.79l-6.75-11.68H249L234.87,44.55,249,69h28.23L284,57.31V70.79a46.43,46.43,0,0,1-1.6,12.54,13.23,13.23,0,0,1-4.92,7.49q-3.65,2.67-10.33,2.67-6.19,0-9.78-2.67c-1.79-1.32-2.87-3.43-3.27-6.31l-9.36-1.39q-.21,9.19,6.05,13.77t16.42,4.57q8.55,0,14.41-3.21a19.72,19.72,0,0,0,8.56-8.74q2.7-5.54,2.7-18.8V21.61H284Zm-.3,12.76L273.38,62.36H252.82L242.54,44.55l10.28-17.81h20.56Zm-36.92,0,8.18-14.17h16.36l8.18,14.17-8.18,14.17H254.92ZM226.9,34.12a55,55,0,0,1,.53,9.36V78.41h-9.62V43.86a25.88,25.88,0,0,0-1.13-8.8,9.2,9.2,0,0,0-4-4.65A12.66,12.66,0,0,0,206,28.67a15.62,15.62,0,0,0-10.62,3.9q-4.47,3.91-4.47,14.82v31h-9.62V21.61h8.66v8.08q6.26-9.36,18.08-9.37a23.73,23.73,0,0,1,9.44,1.85A14.77,14.77,0,0,1,223.9,27,18.56,18.56,0,0,1,226.9,34.12Zm-109.23,35h48.14v9.25H107.3V0H164V9.25H117.67v24h43.38v9.2H117.67Zm268.22-35a54.72,54.72,0,0,1,.54,9.36V78.41H376.8V43.86a26.18,26.18,0,0,0-1.12-8.8,9.27,9.27,0,0,0-4-4.65A12.66,12.66,0,0,0,365,28.67a15.62,15.62,0,0,0-10.62,3.9q-4.47,3.91-4.46,14.82v31h-9.63V21.61h8.66v8.08q6.26-9.36,18.08-9.37a23.73,23.73,0,0,1,9.44,1.85A14.86,14.86,0,0,1,382.9,27,18.71,18.71,0,0,1,385.89,34.12ZM311.71,21.61h9.63v56.8h-9.63ZM452.86,49.9q0-14.07-7.22-21.82T427,20.32q-11.77,0-19.15,7.92T400.5,50.49q0,13.86,7.3,21.53t19.76,7.67q9.9,0,16.26-4.81a24.25,24.25,0,0,0,8.72-13.53l-10-1.23q-2.19,6.09-5.94,8.88a14.72,14.72,0,0,1-9,2.78,15.76,15.76,0,0,1-11.88-5q-4.75-5-5.29-14.33h42.36C452.84,51.33,452.86,50.47,452.86,49.9ZM411,44.55q.48-7.42,5-11.87a15.3,15.3,0,0,1,11.15-4.44,14.77,14.77,0,0,1,11.93,5.56q3,3.59,3.64,10.75ZM311.71,0h9.63V11.07h-9.63Z"/></g></g></svg>