<svg xmlns="http://www.w3.org/2000/svg" xmlns:xlink="http://www.w3.org/1999/xlink" viewBox="0 0 125.73 123.37"><defs><style>.cls-1,.cls-6{fill:none;}.cls-2{fill:#b4b4b5;}.cls-14,.cls-3{fill:#231815;}.cls-3{opacity:0.62;}.cls-4{clip-path:url(#clip-path);}.cls-5{fill:#fff;}.cls-6{stroke:#040000;stroke-width:0.2px;}.cls-7{fill:#8c4e9a;}.cls-8{fill:#3e3a39;}.cls-9{fill:#53b66e;}.cls-10,.cls-11{fill:#040000;}.cls-11{fill-rule:evenodd;}.cls-12{fill:#e7404c;}.cls-13{fill:#2b8acb;}.cls-14{opacity:0.09;}</style><clipPath id="clip-path" transform="translate(29.83 27.47)"><rect class="cls-1" x="13" y="13.57" width="69.9" height="69.9"/></clipPath></defs><g id="レイヤー_2" data-name="レイヤー 2"><g id="レイヤー_1-2" data-name="レイヤー 1"><rect class="cls-2" x="29.83" y="27.47" width="95.9" height="95.9" rx="18.81"/><rect class="cls-3" x="46.67" y="46.04" width="69.9" height="69.9"/><g class="cls-4"><rect class="cls-5" x="42.83" y="41.03" width="69.9" height="69.9"/><line class="cls-6" x1="57.02" y1="103.94" x2="57.02" y2="51.52"/><line class="cls-6" x1="64.01" y1="103.94" x2="64.01" y2="51.52"/><line class="cls-6" x1="71" y1="103.94" x2="71" y2="51.52"/><line class="cls-6" x1="77.99" y1="103.94" x2="77.99" y2="51.52"/><line class="cls-6" x1="84.98" y1="103.94" x2="84.98" y2="51.52"/><line class="cls-6" x1="91.97" y1="103.94" x2="91.97" y2="51.52"/><line class="cls-6" x1="98.96" y1="103.94" x2="98.96" y2="51.52"/><line class="cls-6" x1="50.1" y1="96.88" x2="102.52" y2="96.88"/><line class="cls-6" x1="50.1" y1="89.89" x2="102.52" y2="89.89"/><line class="cls-6" x1="50.1" y1="82.9" x2="102.52" y2="82.9"/><line class="cls-6" x1="50.1" y1="75.91" x2="102.52" y2="75.91"/><line class="cls-6" x1="50.1" y1="68.92" x2="102.52" y2="68.92"/><line class="cls-6" x1="50.1" y1="61.93" x2="102.52" y2="61.93"/><line class="cls-6" x1="50.1" y1="54.94" x2="102.52" y2="54.94"/><rect class="cls-7" x="53.59" y="83.67" width="6.99" height="20.27"/><rect class="cls-8" x="60.58" y="92.76" width="6.99" height="11.18"/><rect class="cls-9" x="67.57" y="86.47" width="6.99" height="17.48"/><rect class="cls-8" x="74.56" y="70.39" width="6.99" height="33.55"/><path class="cls-10" d="M20.27,76.48h-.35v.35h.35Zm.25-56.17a.35.35,0,0,0-.5,0L17.8,22.53a.35.35,0,0,0,0,.5.36.36,0,0,0,.49,0l2-2,2,2a.36.36,0,0,0,.49,0,.35.35,0,0,0,0-.5ZM76.44,76.72a.36.36,0,0,0,0-.49L74.21,74a.35.35,0,0,0-.49.49l2,2-2,2a.35.35,0,0,0,0,.5.36.36,0,0,0,.49,0Zm-55.82-.24V20.56h-.7V76.48Zm-.35.35H76.19v-.7H20.27Z" transform="translate(29.83 27.47)"/><path class="cls-11" d="M-19.89-12.38a8.53,8.53,0,0,0,12-1,8.57,8.57,0,0,0-1-12.07,8.53,8.53,0,0,0-12,1A8.57,8.57,0,0,0-19.89-12.38Zm1.55-1.83a6.14,6.14,0,0,0,8.67-.7,6.17,6.17,0,0,0-.7-8.69,6.14,6.14,0,0,0-8.67.7A6.17,6.17,0,0,0-18.34-14.21Z" transform="translate(29.83 27.47)"/><path class="cls-10" d="M-20.75-14l2.6,2.21L-27.23-1.1l-2.6-2.22Z" transform="translate(29.83 27.47)"/><rect class="cls-12" x="81.55" y="62" width="6.99" height="41.94"/><rect class="cls-13" x="88.54" y="57.11" width="6.99" height="46.83"/></g><rect class="cls-14" x="42.83" y="41.03" width="69.9" height="69.9"/></g></g></svg>